<mxfile host="Electron" modified="2024-03-18T22:29:55.359Z" agent="Mozilla/5.0 (Windows NT 10.0; Win64; x64) AppleWebKit/537.36 (KHTML, like Gecko) draw.io/24.0.4 Chrome/120.0.6099.109 Electron/28.1.0 Safari/537.36" etag="fhkPHWWMpYnso41sOVFv" version="24.0.4" type="device">
  <diagram name="Страница — 1" id="hEB0Bm6Xl2lmmI9Gh6Uw">
    <mxGraphModel dx="2345" dy="1909" grid="1" gridSize="10" guides="1" tooltips="1" connect="1" arrows="1" fold="1" page="1" pageScale="1" pageWidth="827" pageHeight="1169" math="0" shadow="0">
      <root>
        <mxCell id="0" />
        <mxCell id="1" parent="0" />
        <mxCell id="nSKdCkUzyRMTzLm8qKCn-32" value="" style="rounded=0;whiteSpace=wrap;html=1;" parent="1" vertex="1">
          <mxGeometry x="50" y="-55.07" width="810" height="1035.07" as="geometry" />
        </mxCell>
        <mxCell id="nSKdCkUzyRMTzLm8qKCn-1" value="Клиент" style="shape=umlActor;verticalLabelPosition=bottom;verticalAlign=top;html=1;outlineConnect=0;" parent="1" vertex="1">
          <mxGeometry x="900" y="460" width="60" height="120" as="geometry" />
        </mxCell>
        <mxCell id="nSKdCkUzyRMTzLm8qKCn-2" value="Ознакомление инфо о товаре" style="ellipse;whiteSpace=wrap;html=1;" parent="1" vertex="1">
          <mxGeometry x="608" y="330" width="160" height="80" as="geometry" />
        </mxCell>
        <mxCell id="nSKdCkUzyRMTzLm8qKCn-19" style="rounded=0;orthogonalLoop=1;jettySize=auto;html=1;exitX=1;exitY=0.5;exitDx=0;exitDy=0;endArrow=none;endFill=0;entryX=0;entryY=0.3333333333333333;entryDx=0;entryDy=0;entryPerimeter=0;" parent="1" source="nSKdCkUzyRMTzLm8qKCn-4" target="nSKdCkUzyRMTzLm8qKCn-1" edge="1">
          <mxGeometry relative="1" as="geometry">
            <mxPoint x="910" y="560" as="targetPoint" />
          </mxGeometry>
        </mxCell>
        <mxCell id="nSKdCkUzyRMTzLm8qKCn-4" value="Оформление заказа" style="ellipse;whiteSpace=wrap;html=1;" parent="1" vertex="1">
          <mxGeometry x="330" y="530" width="140" height="70" as="geometry" />
        </mxCell>
        <mxCell id="nSKdCkUzyRMTzLm8qKCn-6" value="Продавец" style="shape=umlActor;verticalLabelPosition=bottom;verticalAlign=top;html=1;outlineConnect=0;" parent="1" vertex="1">
          <mxGeometry x="-70" y="260" width="60" height="120" as="geometry" />
        </mxCell>
        <mxCell id="nSKdCkUzyRMTzLm8qKCn-7" value="Платежная система" style="shape=umlActor;verticalLabelPosition=bottom;verticalAlign=top;html=1;outlineConnect=0;" parent="1" vertex="1">
          <mxGeometry x="-70" y="460" width="60" height="120" as="geometry" />
        </mxCell>
        <mxCell id="nSKdCkUzyRMTzLm8qKCn-8" value="Предоставление инфо о товаре" style="ellipse;whiteSpace=wrap;html=1;" parent="1" vertex="1">
          <mxGeometry x="110" y="240" width="150" height="80" as="geometry" />
        </mxCell>
        <mxCell id="nSKdCkUzyRMTzLm8qKCn-10" value="Предоставление счета для оплаты" style="ellipse;whiteSpace=wrap;html=1;" parent="1" vertex="1">
          <mxGeometry x="120" y="450" width="140" height="70" as="geometry" />
        </mxCell>
        <mxCell id="nSKdCkUzyRMTzLm8qKCn-11" value="Получение инфо о клиенте" style="ellipse;whiteSpace=wrap;html=1;" parent="1" vertex="1">
          <mxGeometry x="345" y="760" width="150" height="70" as="geometry" />
        </mxCell>
        <mxCell id="nSKdCkUzyRMTzLm8qKCn-12" value="Курьер" style="shape=umlActor;verticalLabelPosition=bottom;verticalAlign=top;html=1;outlineConnect=0;" parent="1" vertex="1">
          <mxGeometry x="-70" y="650" width="60" height="120" as="geometry" />
        </mxCell>
        <mxCell id="nSKdCkUzyRMTzLm8qKCn-23" style="rounded=0;orthogonalLoop=1;jettySize=auto;html=1;exitX=1;exitY=1;exitDx=0;exitDy=0;entryX=0;entryY=0.3333333333333333;entryDx=0;entryDy=0;entryPerimeter=0;endArrow=none;endFill=0;" parent="1" source="nSKdCkUzyRMTzLm8qKCn-2" target="nSKdCkUzyRMTzLm8qKCn-1" edge="1">
          <mxGeometry relative="1" as="geometry" />
        </mxCell>
        <mxCell id="nSKdCkUzyRMTzLm8qKCn-26" style="rounded=0;orthogonalLoop=1;jettySize=auto;html=1;exitX=0;exitY=0.5;exitDx=0;exitDy=0;entryX=1;entryY=0.3333333333333333;entryDx=0;entryDy=0;entryPerimeter=0;endArrow=none;endFill=0;" parent="1" source="nSKdCkUzyRMTzLm8qKCn-11" target="nSKdCkUzyRMTzLm8qKCn-12" edge="1">
          <mxGeometry relative="1" as="geometry" />
        </mxCell>
        <mxCell id="nSKdCkUzyRMTzLm8qKCn-28" style="rounded=0;orthogonalLoop=1;jettySize=auto;html=1;exitX=0;exitY=1;exitDx=0;exitDy=0;entryX=1;entryY=0.3333333333333333;entryDx=0;entryDy=0;entryPerimeter=0;endArrow=none;endFill=0;" parent="1" source="nSKdCkUzyRMTzLm8qKCn-8" target="nSKdCkUzyRMTzLm8qKCn-6" edge="1">
          <mxGeometry relative="1" as="geometry" />
        </mxCell>
        <mxCell id="nSKdCkUzyRMTzLm8qKCn-29" style="rounded=0;orthogonalLoop=1;jettySize=auto;html=1;exitX=0;exitY=0.5;exitDx=0;exitDy=0;entryX=1;entryY=0.3333333333333333;entryDx=0;entryDy=0;entryPerimeter=0;endArrow=none;endFill=0;" parent="1" source="nSKdCkUzyRMTzLm8qKCn-10" target="nSKdCkUzyRMTzLm8qKCn-7" edge="1">
          <mxGeometry relative="1" as="geometry" />
        </mxCell>
        <mxCell id="nSKdCkUzyRMTzLm8qKCn-33" value="&lt;font size=&quot;1&quot; style=&quot;&quot;&gt;&lt;b style=&quot;font-size: 17px;&quot;&gt;Доставка товаров&lt;/b&gt;&lt;/font&gt;" style="text;html=1;align=center;verticalAlign=middle;resizable=0;points=[];autosize=1;strokeColor=none;fillColor=none;" parent="1" vertex="1">
          <mxGeometry x="345" y="-40" width="180" height="30" as="geometry" />
        </mxCell>
        <mxCell id="7MHb7sq_zLadh4woatQi-1" value="Просмотр каталога товаров" style="ellipse;whiteSpace=wrap;html=1;" parent="1" vertex="1">
          <mxGeometry x="460" y="170" width="140" height="70" as="geometry" />
        </mxCell>
        <mxCell id="7MHb7sq_zLadh4woatQi-2" value="&amp;lt;&amp;lt;include&amp;gt;&amp;gt;" style="html=1;verticalAlign=bottom;labelBackgroundColor=none;endArrow=open;endFill=0;dashed=1;rounded=0;entryX=1;entryY=1;entryDx=0;entryDy=0;" parent="1" source="nSKdCkUzyRMTzLm8qKCn-2" target="7MHb7sq_zLadh4woatQi-1" edge="1">
          <mxGeometry width="160" relative="1" as="geometry">
            <mxPoint x="240" y="460" as="sourcePoint" />
            <mxPoint x="460" y="210" as="targetPoint" />
          </mxGeometry>
        </mxCell>
        <mxCell id="7MHb7sq_zLadh4woatQi-4" value="Поиск товаров" style="ellipse;whiteSpace=wrap;html=1;" parent="1" vertex="1">
          <mxGeometry x="650" y="50" width="140" height="70" as="geometry" />
        </mxCell>
        <mxCell id="7MHb7sq_zLadh4woatQi-6" value="&amp;lt;&amp;lt;extend&amp;gt;&amp;gt;" style="html=1;verticalAlign=bottom;labelBackgroundColor=none;endArrow=open;endFill=0;dashed=1;rounded=0;exitX=0;exitY=1;exitDx=0;exitDy=0;entryX=1;entryY=0;entryDx=0;entryDy=0;" parent="1" source="7MHb7sq_zLadh4woatQi-4" target="7MHb7sq_zLadh4woatQi-1" edge="1">
          <mxGeometry width="160" relative="1" as="geometry">
            <mxPoint x="240" y="320" as="sourcePoint" />
            <mxPoint x="400" y="320" as="targetPoint" />
          </mxGeometry>
        </mxCell>
        <mxCell id="7MHb7sq_zLadh4woatQi-7" value="Формирование корзины" style="ellipse;whiteSpace=wrap;html=1;" parent="1" vertex="1">
          <mxGeometry x="430" y="340" width="140" height="70" as="geometry" />
        </mxCell>
        <mxCell id="7MHb7sq_zLadh4woatQi-10" value="&amp;lt;&amp;lt;include&amp;gt;&amp;gt;" style="html=1;verticalAlign=bottom;labelBackgroundColor=none;endArrow=open;endFill=0;dashed=1;rounded=0;exitX=1;exitY=0;exitDx=0;exitDy=0;entryX=0.5;entryY=1;entryDx=0;entryDy=0;" parent="1" source="nSKdCkUzyRMTzLm8qKCn-4" target="7MHb7sq_zLadh4woatQi-7" edge="1">
          <mxGeometry width="160" relative="1" as="geometry">
            <mxPoint x="60" y="450" as="sourcePoint" />
            <mxPoint x="220" y="450" as="targetPoint" />
          </mxGeometry>
        </mxCell>
        <mxCell id="7MHb7sq_zLadh4woatQi-11" value="&amp;lt;&amp;lt;include&amp;gt;&amp;gt;" style="html=1;verticalAlign=bottom;labelBackgroundColor=none;endArrow=open;endFill=0;dashed=1;rounded=0;exitX=0.5;exitY=0;exitDx=0;exitDy=0;entryX=0.5;entryY=1;entryDx=0;entryDy=0;" parent="1" source="7MHb7sq_zLadh4woatQi-7" target="7MHb7sq_zLadh4woatQi-1" edge="1">
          <mxGeometry width="160" relative="1" as="geometry">
            <mxPoint x="180" y="410" as="sourcePoint" />
            <mxPoint x="340" y="410" as="targetPoint" />
          </mxGeometry>
        </mxCell>
        <mxCell id="7MHb7sq_zLadh4woatQi-12" value="Авторизация" style="ellipse;whiteSpace=wrap;html=1;" parent="1" vertex="1">
          <mxGeometry x="270" y="110" width="140" height="70" as="geometry" />
        </mxCell>
        <mxCell id="7MHb7sq_zLadh4woatQi-16" value="&amp;lt;&amp;lt;include&amp;gt;&amp;gt;" style="html=1;verticalAlign=bottom;labelBackgroundColor=none;endArrow=open;endFill=0;dashed=1;rounded=0;exitX=0.5;exitY=0;exitDx=0;exitDy=0;entryX=0.5;entryY=1;entryDx=0;entryDy=0;" parent="1" source="nSKdCkUzyRMTzLm8qKCn-4" target="7MHb7sq_zLadh4woatQi-12" edge="1">
          <mxGeometry width="160" relative="1" as="geometry">
            <mxPoint x="340" y="390" as="sourcePoint" />
            <mxPoint x="500" y="390" as="targetPoint" />
          </mxGeometry>
        </mxCell>
        <mxCell id="7MHb7sq_zLadh4woatQi-17" value="&amp;lt;&amp;lt;include&amp;gt;&amp;gt;" style="html=1;verticalAlign=bottom;labelBackgroundColor=none;endArrow=open;endFill=0;dashed=1;rounded=0;entryX=0;entryY=1;entryDx=0;entryDy=0;exitX=1;exitY=0;exitDx=0;exitDy=0;" parent="1" source="nSKdCkUzyRMTzLm8qKCn-8" target="7MHb7sq_zLadh4woatQi-12" edge="1">
          <mxGeometry width="160" relative="1" as="geometry">
            <mxPoint x="230" y="250" as="sourcePoint" />
            <mxPoint x="500" y="390" as="targetPoint" />
          </mxGeometry>
        </mxCell>
        <mxCell id="7MHb7sq_zLadh4woatQi-18" value="Регистрация" style="ellipse;whiteSpace=wrap;html=1;" parent="1" vertex="1">
          <mxGeometry x="100" y="10" width="140" height="70" as="geometry" />
        </mxCell>
        <mxCell id="7MHb7sq_zLadh4woatQi-19" value="&amp;lt;&amp;lt;extend&amp;gt;&amp;gt;" style="html=1;verticalAlign=bottom;labelBackgroundColor=none;endArrow=open;endFill=0;dashed=1;rounded=0;entryX=0;entryY=0;entryDx=0;entryDy=0;exitX=1;exitY=1;exitDx=0;exitDy=0;" parent="1" source="7MHb7sq_zLadh4woatQi-18" target="7MHb7sq_zLadh4woatQi-12" edge="1">
          <mxGeometry width="160" relative="1" as="geometry">
            <mxPoint x="170" y="80" as="sourcePoint" />
            <mxPoint x="530" y="350" as="targetPoint" />
          </mxGeometry>
        </mxCell>
        <mxCell id="7MHb7sq_zLadh4woatQi-22" value="&amp;lt;&amp;lt;extend&amp;gt;&amp;gt;" style="html=1;verticalAlign=bottom;labelBackgroundColor=none;endArrow=open;endFill=0;dashed=1;rounded=0;exitX=1;exitY=0.5;exitDx=0;exitDy=0;entryX=0;entryY=0;entryDx=0;entryDy=0;" parent="1" source="nSKdCkUzyRMTzLm8qKCn-10" target="nSKdCkUzyRMTzLm8qKCn-4" edge="1">
          <mxGeometry width="160" relative="1" as="geometry">
            <mxPoint x="287.91870674094025" y="419.5363134828349" as="sourcePoint" />
            <mxPoint x="440" y="550" as="targetPoint" />
          </mxGeometry>
        </mxCell>
        <mxCell id="7MHb7sq_zLadh4woatQi-24" value="&amp;lt;&amp;lt;include&amp;gt;&amp;gt;" style="html=1;verticalAlign=bottom;labelBackgroundColor=none;endArrow=open;endFill=0;dashed=1;rounded=0;exitX=0.5;exitY=0;exitDx=0;exitDy=0;entryX=0.5;entryY=1;entryDx=0;entryDy=0;" parent="1" source="nSKdCkUzyRMTzLm8qKCn-11" target="nSKdCkUzyRMTzLm8qKCn-4" edge="1">
          <mxGeometry width="160" relative="1" as="geometry">
            <mxPoint x="280" y="550" as="sourcePoint" />
            <mxPoint x="440" y="550" as="targetPoint" />
          </mxGeometry>
        </mxCell>
      </root>
    </mxGraphModel>
  </diagram>
</mxfile>
